# xmcd
#
# Track frame offsets:
# 150
# 26885
# 45957
# 53750
# 92112
# 115670
# 133620
# 170645
#
# Disc length: 2396 seconds
#
#
# Revision: 0
# Processed by: cddbd v1.5.2PL0 Copyright (c) Steve Scherf et al.
# Submitted via: FreeRIP 2.90 
#
DISCID=63095a08
DTITLE=Sid Rumpo - First Offense
DYEAR=1974
DGENRE=Rock
TTITLE0=Spotlight
TTITLE1=Breakin' My Back
TTITLE2=Spider Curry
TTITLE3=Sailing
TTITLE4=The Riddle
TTITLE5=Don't Bug Me Boogie
TTITLE6=Song With No Trees
TTITLE7=Poor Man's Orange
EXTD=
EXTT0=
EXTT1=
EXTT2=
EXTT3=
EXTT4=
EXTT5=
EXTT6=
EXTT7=
PLAYORDER=
